<svg id="Layer_1" data-name="Layer 1" xmlns="http://www.w3.org/2000/svg" viewBox="0 0 228.217 313.777">
  <g fill="#E6B8F8">
    <path d="M181.643,191.9c.253-.255,1.139-.514.937-.766l-.231-.377-1.017.635.078.127Z" />
    <path d="M29.757,67.186c-.073.194.023.236.128.272.588-.214.736.3,1.583.325l.1-.468c-.7-1.161-2.157-1.155-3.27-1.165a.268.268,0,0,0-.4.162l-1.063-.222-.122.709a2.278,2.278,0,0,1,1.98.168C29.27,67.285,29.532,66.682,29.757,67.186Z" />
    <path d="M.34,65.556c-.629-.2-.188.763-.212,1.219L.3,66.761l.175-.014C.371,66.283.662,66.256.75,66,.531,65.994.322,65.967.34,65.556Z" />
    <path d="M32.82,68.3a.612.612,0,0,1,.237.544l.171.048q.618.4.691-.553C33.584,68.385,32.969,67.776,32.82,68.3Z" />
    <path d="M54.481,110.648c-.5.034.46,1.061.9.1C55.143,110.41,54.688,111.135,54.481,110.648Z" />
    <path d="M54.868,111.557l-.3-.23c-.142.135-.251.108-.4.293l.1.076c.26.03.389.669.744.274C54.806,111.9,54.987,111.664,54.868,111.557Z" />
    <path d="M151.976,301.277c-.637-.392-.551-.834-.96-1.242-.236-.108-.18-.236-.109-.366a1.579,1.579,0,0,1-.857-.325c.047.561-.56,1.157-.113,1.7l.995.684.138-.2,1,.68C152.212,301.71,150.922,301.358,151.976,301.277Z" />
    <path d="M34.148,2.416l.07-.475c.2-.435.735-.507.779-1.1-.344-.088-.544-.023-.637.152a1.47,1.47,0,0,1-1.269.308l-.067.476C33.006,2.221,34.013,2.06,34.148,2.416Z" />
    <path d="M28.621,3.127l.3.038c.079-.185.324-.2.352-.438-.576.375-.852-.215-1.456-.428.357-.882,1.577-.044,2.078.267.174-.329.258.058.593.078.912.157-.523-1.053-.564-.316-.6-.214-.587-.454-.212-.754C28.6,1.59,28.622.91,27.669.829l-.3-.037C26.294,1.93,27.856,2.5,28.621,3.127Z" />
    <path d="M206.9,214.513a.684.684,0,0,0-1.271-.385C205.573,214.7,206.141,215.36,206.9,214.513Z" />
    <path d="M228.217,245.554c-.177-.047-.143-.339-.38-.317,0-.189-.07-.3-.239-.288,0-.19-.067-.3-.235-.289-.64-.751-1.784-.881-2.37-1.7.009-.306-.067-.518-.3-.561l-.268-.062-.135-.031a4.09,4.09,0,0,0-.164,1.932c.432.2.456.828.766,1.166-.009.19.058.3.23.3.216.686.432,1.353,1.2,1.444-.176.363.614.508.578.106l.433.081c.086.03.165.069.105.264.235-.083.422-.282.655-.363A6.53,6.53,0,0,0,228.217,245.554Z" />
    <path d="M225.305,250.871l-.458-.083c-.627-.383-.7.624-1.01,1.027-.573.059-.594-.415-.819-.686l-.106.469-.154-.036c.1-.524-.629-.251-.869-.447-.167.32-.108,1.248-.437,1.13-.375.286-1.276-.5-1.156-1.278a.616.616,0,0,0-.395-.361l-.153-.043-.152-.043-.153-.042c-.223-.214.317-1.094.022-1.24-.087.481-.42-.168-.383-.355.084-.189,0-.233-.082-.271-.03.2-.122.2-.217.188a.708.708,0,0,1-.676-.443c.166-.425-.01-.562.136-.969.191.047.289-.219.507-.09.1.083.112.239.008.5.148.042.232-.138.364-.15a3.055,3.055,0,0,0,.819-2.262c.083-.189.008-.233-.075-.269.288-.6-.143-.541-.008-1-.279-.239-.14-.874-.408-1.132l-.136-.046a.593.593,0,0,0-.471-.408c.046-.26-.22-.244-.123-.545-.251-.05-.192-.372-.463-.4l.077-.228-.268-.086a1.1,1.1,0,0,0-.166-.809c.125-1.053-.134-1.79-1.069-1.937.1-.181.03-.231-.043-.273-.738.067-.839-.585-1.462-.039l-.256-.111c-.16.3-.384.132-.567.278-.312.4-.7.266-1.093.058-.549-.2-.649-.706-1.325-.846-.49.395-1.06.034-1.622-.239-.168-.036-.206-.156-.153-.337l-.258-.12c.061-.186-.023-.275.085-.491l-.127-.064c-.261-.179,0-.685.288-1.205.241-.016.471-.146.713-.175l.125.058c.259.229.465-.269.73.077l.249.117c.209-.586,1.393-.841.863-1.185a1.291,1.291,0,0,1-.417-.992l-.121-.057.1-.216c-.108-.159-.109-.392.078-.758.664-.117,1.869-.8,2.2.247.291.266.023.938.539,1.018l.24.1c-.048.182-.01.3.145.321l.12.051c.228.471.617.481.992-.357.069-.254-.173-.252-.053-.546-.166-.06-.215-.214-.259-.371l-.118-.05c.391-.848-.582-.584-.221-1.4l-.231-.095-.116-.048c.076-.293.052-.51-.145-.595-.408-.032-.844-.747-1.238-.326l-.114-.054-.1.216c-.42-.2-.846-.38-1.259-.615a1.083,1.083,0,0,1-.8-.42l-1.141-.593-.564-.329-.226-.132-.118.209-.568-.327-.569-.324c.28-.327.584-1.29.846-1.175.111.106.226.067.345-.081a1.044,1.044,0,0,0,1.35-.053l.109.063c.222-.013.447-.148.667-.164.418-.49.822-.486,1.231-.985.2-.449-.057-.569-.083-.851.414-.507.8-.477,1.2-.732.192-.617-.426-.631.385-1.691-.436-.176-.424-.723-.986-.834a4.5,4.5,0,0,0-1.827,0,20.079,20.079,0,0,0-2.168.4c-.094-.183.125-.172.258-.4-2.027.639-2.587-2.688-3.536-4.2-.656.339-1.305.579-1.784-.165.043-.443.719-.625.79-1.213-.275-.538-.828.381-1.142.019-.286.408.4.4.2.768-1.428.486-2.189-1.535-3.326-.872a4.516,4.516,0,0,0-1.312-1.695,3.943,3.943,0,0,1-1.314-1.97c-.272-.122-.143-.367-.222-.548a3.792,3.792,0,0,1-2.711.036,7.587,7.587,0,0,1-1.4-2.28,4.551,4.551,0,0,0-1.362-2.026c-.192-.2-.374-.419-.559-.633l-.926-1.069-.092-.106a23,23,0,0,1-4.327-8.225c-.129-.112-.108-.236.025-.371-.23-.3-.447-.621-.664-.941l.2-.138-.736-1.068c-.639-.566-1.367-1.707-2.493-2.009l-.079-.122c-.684.476-1.244.949-.8,1.4-.265.175-.042.338-.24.513l.081.124c.241.9,1.245,1.712.9,2.617-.322.233-1.131.76-1.3-.193l-.085-.123c.3-.513-.574-.993-.717-1.508l-.329-.505-.165-.252-.082-.126-.33-.5c-.252-.373-.489-.76-.725-1.148-.031-.133-.155-.072-.284,0l-.478-.775c-.08-.22-.274-.934-.718-1.16-.195-.394-.612-.8-.4-1.176l-.076-.131c-.377-.661-.778-1.3-1.141-1.978l-1.176-2.139-.075-.134-.212.114-.5-.951c-.328.14-.365-.228-.495-.434l-.78-1.5c-.116-.185-.226-.375.012-.523l-.067-.138c-.01-.4-.1-1.477-.74-1.519-.095-.526-.9-1.152-.507-1.628l-.383-.838.217-.1-.191-.417c-.209-.467-.439-.924-.632-1.4-.233-.956-1.224-2.033-.983-2.909-.1-.194-.2-.388.052-.517a1.449,1.449,0,0,1,.328-1.119c-.271-.283-.131-1.131-.677-1.039-.323-.81-.648-1.728-.974-2.587l.224-.083-.173-.461-.057-.154c-.339-.41.021-.645-.12-1l-.4-1.109c-.131-.57-.633-1.248-.339-1.695a.262.262,0,0,1,.114-.4l-.057-.161c-.214-.3.006-.481,0-.723.351-1.344.617-3.013.924-4.013l-.056-.167c-.61-.77-.652-2.208-1.347-4.118-.047-.1-.1-.2-.284-.1l-.225-.7-.338-1.053-.742-2.345-.287-.916-.23-.733-.057-.184-.23.072-.114-.366a1.824,1.824,0,0,0-1.033-.885c-.3-.347-.452-.985-1.041-.917-.641-.079.234-.7-.467-.69l-.059-.191.229-.072c-.383-.854.07-1.364-.594-1.9l-.229.072-.356-1.142c-.322-.529-.238-1.782-.844-1.886-.237-.31-.376-.78-.768-.84l-.559-1.771-.248-.788-.062-.2-1.182-3.654-.131-.406.228-.074c-.142-.585.564-.8.582-1.316.3-.085.4.157.751-.021-.069-.439.488-.6.419-1.042.228-.075.213-.261.384-.361-.338-.971-.575-2.128-1.307-2.375l-.5-1.474-.227.078-.071-.209c-.183-.7-.691-.74-.807-1.616l-.154-.432c.278-.56-.169-.551-.385-1.081-.09-.313-.181-.625-.457-.567.034.136.058.267-.149.3a1.612,1.612,0,0,0-1.207.187c-.072-.716-.512-.7-.687-1.21a2.955,2.955,0,0,0-1.066-1.551l-.241-.652c.216-.087.072-.334.058-.523l-.587-1.539-.252-.66-.168-.44.224-.086-.168-.439c-.026-.195.14-.306.055-.528l1.118-.435.17.444c.061.27.2.374.393.355a8.867,8.867,0,0,1,1.211,1.824,1.332,1.332,0,0,0,.563.805c2.95.181.749-4.419-1.06-5.459-.357-.47-.861-1.933-1.217-1.091l.094.227c-.266.041-.338-.391-.632-.275l-.094-.227a3.234,3.234,0,0,0-1.636-1.446l-.281-.678c-.477-1.007.92-1.228,1.3-1.879.218-.159-.038-.516.252-.644.306-.746-.837-2.116-1.111-3.109-.2.034-.324-.136-.544-.037l-.1-.231c-.215.088-.3-.208-.428-.366-.211-.285-.635.055-.979.164-.34-.577-.04-.895.559-1.091l-.526-1.159c-.793-.4-.835.342-1.506-.414l-.23-.467c-.2.039-.332-.132-.548-.027l-.46-.932-.346-.7-.115-.233c-.079-.472-.939-1.238-.48-1.5.143-.767-1.09-2.05-.865-2.786l-.128-.236a32.312,32.312,0,0,1-2.544-6.595l-.429-.712c.265-.1.337-.269.27-.481l-.144-.238a15.161,15.161,0,0,0,.775-2.42c.58-.834-.157-2.1-.6-3.279-.511-.981-1.151-1.629-1.855-1.54l-.5-.725-.167-.242c-1.32.132-2.532-2.621-4.164-3.865a12.554,12.554,0,0,0-2.381-4.024c-.385-.393-.187-.664-.538-1.05-.783-.662-.422-1.089-1.093-1.728-1.206-1.182-1.3-2.144-2.4-3.3-.222-.485-1.313-1.122-.936-1.5-.436-.522-.911-1-1.365-1.5-.108-.817-1.574-1.811-1.453-2.6a.793.793,0,0,0-.049-.752c.1-.175-.027-.377.148-.542a.813.813,0,0,1-.054-.757c-.177-1.326-1.6-2.85-3.164-4.306-.548-.47-1.053-.936-1.116-1.371l-1.505-1.393L117.845,46.5c.2-.549-1.152-1.18-1.574-1.759.149-.242-.171-.508-.494-.771a2.957,2.957,0,0,0-2.145-1.546l-.227-.184c.135-.8-2.319-1.587-2.194-2.387l-.228-.183-.914-.73c.567-.38-1.187-.722-.621-1.1l-1.843-1.453a3.178,3.178,0,0,0-.979-1.1,4.132,4.132,0,0,1-1.083-1.037c-1.311-.956-1.91-1.964-3.328-2.906l.136-.2c-.451-.274-.345-.594-.833-.866l-.243-.167-.972-.666-1.947-1.323c-.808-.587-2.125-1.083-2.376-1.734-.045-.491-.933-.866-1.262-1.319l-.506-.3-1.012-.6-1.267-.751c-.392-.256-1.025-.471-.9-.806l-1.527-.894c.079-.6-1.416-.855-1.97-1.312-.243-.078-.2-.21-.148-.347l-.788-.407-.525-.27c-.111-.673-1.79-1.019-2.523-1.558A53.606,53.606,0,0,1,78.7,14.932l-1.359-.593c.258-.455-.922-.52-1.264-.81-1.98-.673-2.84-1.66-4.832-2.315-.25-.057-.224-.2-.185-.339l-.825-.344a41.939,41.939,0,0,1-4.892-2.275l-.282-.1L62.238,7.17l-.566-.2a5.191,5.191,0,0,0-2.054-1.452c-.362-.521-1.647-.673-2.542-.978.238-.639-1.85-.315-1.615-.954-2-1.439-4.995-1.349-6.863-2.577C48.255.9,47.74.871,47.755.586l-1.5-.32C45.165-.153,44.761.251,43.808,0l-.049.234c-.386-.065-.476.216-.946.052.01.883-1.048.508-1.172,1.231l-.593-.12c.334-.6-1.431-.111-1.1-.711L39.055.51c-.764.24-1.826.2-2.293.823.035-.59-2.826.41-1.051.819l.3.043c.752.287.777.975,1.623,1.218l.584.114-.041.235.292.058a7.009,7.009,0,0,0,3.355,1.407l.29.059,2.9.6.29.061.052-.235.87.186c1.821.178,2.623.922,4.242,1.289l.284.077c-.07.442.923.405,1.011.775l.283.078c.475.06.428.353.785.465l.283.079c-.031.284.459.339.78.468l4.222,1.2c1.389.446,2.761.937,4.14,1.413l2.476.871.081-.227.275.1,1.376.491a3.893,3.893,0,0,1,2.642.456c2.546.751,3.923,2.794,5.632,3.171.8.348.656.963,1.307,1.35.887.26.758.8,1.757,1.031a2.424,2.424,0,0,0,1.2.841l.259.13a9.94,9.94,0,0,0,2.366,1.728,12.182,12.182,0,0,1,5.092,5.067c.168.219.337.441.258.705a8.208,8.208,0,0,1,2.569,2.351c-.353.282-.423,1.389-.971,1.1-1.453-.887-2.177-1.925-3.244-1.077l.24.141c.14.1.267.2.123.35-.213-.062-.477-.272-.6-.071-.8,1.088-2.436.084-3.209,1.277l-1.211-.625-.112.212-.485-.249a5.353,5.353,0,0,1-2.454-1.79c.051-.138.09-.274-.138-.339-.142-.088-.273-.178-.137-.338s0-.252-.139-.34c-.419-.516-.464-1.132-1.057-1.605l-.1.216c-.734-.384-1.485-.729-2.247-1.051L73.3,25.4c-.843-.178-.821-.624-1.42-.878-.352-.174-.7-.347-.857-.109l-3.8-1.621c.064-.279-.388-.383-.674-.543.123-.17-.016-.253-.166-.331.1-.773.39-.9.185-1.224.127-.566-.606-.824-.7-1.3-1.218-.514-1.627-1.331-3.276-1.682l-.265-.094-.081.225c-.325-.074-.739-.3-.876-.053l-1.06-.372c-1.348-.783-1.5-.551-3.451-1.192-.71-.236-1.44-.424-2.161-.636-1.448-.526-2.345-.22-3.861-.836-.541-.256-.762-.04-1.147-.068L48.6,14.4c-.861-.289-1.251.1-2.226-.354l-.057.233c-.436-.085-1.022-.341-1.153-.009l-1.1-.234-1.649-.348c-1.591-.175-3.79-1.1-5-.775.4.122,1.031.119,1.055.456-1.288-.627-2.52.269-3.066-.346l-.278-.04c-.172-.011-.335-.012-.317.2.29.054.168.335-.316.2l-.555-.08c-.519-.036-.3.778-.7.871.462.2,1.667-.056,1.615.472-.049.513,1.145.283,1.594.527.846.212.771.958.508,1.814-.541-.212-.737.02-1.112.023l-.535-.106c-.727-.327-.756.227-1.391.033-.039.142-.086.273-.309.2l-.191,1.185c.633.089.725.51,1.566.478a1.949,1.949,0,0,0,1.276.5c.518.249,1.786.057,1.8.607a8.063,8.063,0,0,1,2.426,1.479l-.05.235c.74.05.055.925.574,1.1.028.549-.565.23-.669.595-1.518.622-4.158-.3-5.659.317l-.255-.051c-.207.015-.5-.1-.551.138l-.517-.074c-.762-.283-.98.109-1.587.017a2.374,2.374,0,0,0-1.582.025,1.91,1.91,0,0,0,.05,1.459l1.53.213.765.107c.306.006.716.143.8-.127.17.024.341.046.507.083l2.265.454,2.013.411.754.156,2.01.42c.151.046.29.1.2.286a1.734,1.734,0,0,1,1.2.5l.5.107c-.02.147-.028.279.192.292,0,.269.449.29.376.6l1.223.333.978.269c.062-.677,1.285.549,1.35-.126l.49.136c.612,1,1.841.141,2.41-.072l.492.139a7.341,7.341,0,0,1,2.067.024,2.135,2.135,0,0,0,1.8-.334l.487.169c.958-.484.128-1.346-.212-1.85-.4,0-1.189-.706-1.3-.2L51.622,26.7l-1.256-.355-.5-.142c-.226-.017-.212-.156-.185-.3.006-.2-.187-.3-.12-.533-.874-.349-1.179-.992-2.4-1.165-1.15-.141-1.328-.787-2.481-.925l-.255-.069c.027-.572-1.365-.32-1.437-.819.211-.531.928-.351,1.264-.712l.056-.232a3.532,3.532,0,0,1,3.015.065c1.512.25,3.521,1.3,4.714,1.064l.259.073,1.289.368c.868.226,1.7.55,2.544.832l.075-.228,2.278.794c-.033.143-.055.281.174.315L61.677,25.8c.319.252,1.4.2,1.173.676l.5.181a1.531,1.531,0,0,0,.656.517c-.039.142-.067.279.158.326a16.033,16.033,0,0,1,1.441,1.389l-.091.223c.576.238.557.686,1.365.842a1.137,1.137,0,0,0,1.5-.142.736.736,0,0,0,.924-.124c.673-.247,1.237-.741,2.2-.354.9.391,1.806.777,2.676,1.235l.1-.215,2.636,1.33c-.052.138-.092.272.132.335q1.565.513.643,1.677a.747.747,0,0,0-.691.185l-.473-.241.108-.213-.947-.481c-1.077-.263-1.508-1.025-2.312-.092-.17.421.707.54.392,1l.469.236c.467.174.4.5.829.689l.935.475.233.119a2.237,2.237,0,0,1,1.177,1.141c-.306.508-.572,1.006-.439,1.394.565.753.316,1.721,1.72,2.239.23.113.449.247.671.376l1.106.652.221.131,1.105.654-.121.208-.121.207L82,42.64c-.269.743-.679,1-1.166.982-1.076-.8-1.858-.612-2.953-1.464l-.449-.232c-.468.263-1.112,0-1.576.266-.41.06-.936-.227-1.228.177a7.616,7.616,0,0,1-2.338-1.464c-1.271-1.25-3.429-3.212-4.258-3.923-.159-.126-.187-.3-.034-.538l-.932-.4c-1.455-.948-3.124-1.2-4.493-2.441l-.469-.2-.234-.1c-.174-.122-.146-.324-.383-.421-.694-.24-1.526-.693-2-.474-.3-.067-.668-.284-.8-.033l-1.921-.68.079-.226c-.9-.216-1.988-.791-2.4-.076l-.24-.084a32,32,0,0,0-3.078,1.19,18.582,18.582,0,0,1-3.159,1.146c-1.135-.467-1.613.2-2.744-.266-.158.294-.645.028-1.01-.03l-.474-.13a13.18,13.18,0,0,1-.9-2.487c.2-.513-.632-.455-.557-.888l-.492-.105-1.972-.417c-.153.432.163.575.037.99l-.052.233c-.464.039-1.042-.091-1.322.214a37.16,37.16,0,0,1-4.842.237l-.242-.049c-.166.115-.758,1.008-.208,1.182-.1.275-.29.093-.479-.1.013.2.2.284.158.521l2.386.482,1.908.392c.606.69,2.439.592,3.519.982.639.119,1.256.31,1.88.476.04.64.81.855,1.158,1.312.624,1.569,2.617,1.323,3.232,2.645-.592-.341-2.029.42-3.061.391.505.355,1.588.377,1.39,1.134-1.319.323-1.916-.776-2.812-1.277l-.226-.063c-.5-.619-1.939-.71-2.909-.979l-.923-.194-.924-.193c-.508.039-1.459-.606-1.666-.1l-1.154-.237c-.5.458-1.776-.273-2.58-.279-.231-.048-.461-.095-.7-.123l-1.868-.26c-.294.556-1.112.391-1.142,1.3.231.03.246.229.427.3.263.076.193.408.123.743a4.047,4.047,0,0,0,2.233,2.015c.266.014.388.134.4.327l1.559.317-.045.235c.254.091.639.089.621.371.083.686,1.008.769,1.625,1.072l.22.045c-.042.229.231.237.39.326l.44.091c-.1.467.532.422.23,1.028,1.183.209.95.03,2.019.177.147.026.287.073.431.11l.43.118c1.292.436,3.517-.791,3.865,1.071l.43.12.214.06c-.1.443.662.359.44.871-.244.589.268.718.644.929-.006.191-.131.454.072.518.6.39.618,1.1,1.105,1.585l.2.072,1.025.358.614.215c.12.057.231.119.127.3l.409.144,1.43.5.817.288a1.112,1.112,0,0,1,.733.513l-.084.225c.923.051.229.955.672,1.257,1.017.337,1.977.816,2.967,1.218.279.164.76.232.693.558.278.163.759.232.69.557.634.054.373.528.882.639l.2.084a1.246,1.246,0,0,0,.877.639c.228.242,1.125.18.873.637.488.066.084.532.371.7l-.41.87c.124.121.132.291-.018.528.244.127-.011.466.164.621l.185.094-.1.217c-.124.741.372,1.215.183,1.976-.581.223-1.365-.382-1.945-.181-.3-.163-.616-.276-.924-.415l-.1.218c-1.1.067-1.419-.381-2.424-.519l.1-.22c-.445-.225-.88-.417-1.207-.256-.488.863-1.429.219-1.84,1.3a1.738,1.738,0,0,0,.64-.509c.255.2-.321.32,0,.522l-.185.443c-.115-.036-.229-.059-.273.143l-.544-.233c.11-.174.015-.24-.091-.3l-.545-.233c-.618-.209-1.7-.085-2.029-.78-.746-.122-.442-.993-2-1.467l-.188-.066-1.126-.4c.071-.225-.17-.258-.3-.36-.755-.254-1.5-.554-2.264-.77l-1.729-.481-.192-.054-4.035-1.122-.384-.107c-.508-.159-1.035-.241-1.555-.355l-.976-.2-1.172-.241-.39-.081c-.49,0-.338-.517-.931-.437L28.984,56l-.2-.04-.041.236c-.453-.109-.92-.138-1.379-.211l-.038.237-1.184-.159c.241-.63-.322-.532-.256-1.005L24.7,54.9l-.6-.081c-.031.24.125.306.137.5l-1.188-.161-.793-.107c-.148-.074-.39-.059-.37-.292-.7-.209-1-.767-1.952-.664-.167.037-.221.229-.422.214-.023.144-.054.282-.22.227a11.24,11.24,0,0,1-1.466.869c.022.2-.093.22-.214.226a1.331,1.331,0,0,0-1.41.391l-.2-.013c-.114.386-1.5.3-.83.909.584.193,1.106.448,1.1,1.272.72.026.566-.232,1.156.074.153-.043.38.019.4-.214l.193.012c.227.563,1.335.174,1.909.36.027-.314-.318-.238-.343-.5l.193.013a9.051,9.051,0,0,0,2.671.534l1.727.234-.032.237a1.5,1.5,0,0,0,1.27.657l2.1.282c.7.11,1.383.277,2.075.412l.044-.236.189.039a6,6,0,0,1,2.506.271l.568.117c-.012.332.429.292.7.391.364-.066,1.042.51,1.19,0,.127.022.249.065.374.1l.931.26a4.11,4.11,0,0,0,2.55.214,3.032,3.032,0,0,0,1.565.186c.569.3.919.086,1.384.136.249.074.5.127.747.222l1.84.649-.076.227c.611.454,1.584.684,1.777,1.388.363-.487.352.7,1.011.611l.084-.226c.585,0,.353.483.826.546.227.094.142.376.46.416a6.029,6.029,0,0,0,2.206,1.712,3.608,3.608,0,0,1,1.391,1.119c.568.571,0,1.811-.921,1.173l-.518-.222c.139-.246.376-.123.613,0l.381-.883-.524-.225c-.266-.033-.379.492-.549.811-.237-.125-.474-.249-.611,0l.172.074c-.393.237-.874.139-1.066,1.108-.155-.018-.26.149-.431.075l.091-.221-.341-.147c-.155.907-.778.078-.953.9l-.337-.146c-.618-.263-1.263-.454-1.893-.685l-.173-.061-1.555-.546-.345-.122c-.121.253-.358.151-.595.044a4.006,4.006,0,0,0-2.754-.065,10.015,10.015,0,0,1-2.544.667c.043.446-.362,1.238.178,1.3l-.068.23.339.094a15.421,15.421,0,0,1,1.576.653,1.99,1.99,0,0,1,.979,1.152l-.076.227c.328.059.276.385.579.461.7.083.451.833,1.15.914l.163.058c.3.074.245.4.571.453.447.536,1.312.782,1.692,1.352.222.133.612.17.541.493.219.139.61.171.536.494l.626.27a.766.766,0,0,1,.533.49,1.714,1.714,0,0,1,1.173,1.547l.619.263c-.113.175-.033.232.056.285-.864,1.512-2.076.416-2.842-.17-.151-.059-.232.22-.337.376-.233-.122-.622-.143-.516-.483-.767.854-1.371-.112-1.957.46-.612-.763-1.855-.262-2.463-1.364a3.136,3.136,0,0,0-1.393.016l-.307-.109c-1.111.106-.326,1.367-.158,1.982.165.1.441.113.373.387l.6.212a.773.773,0,0,1,.671.489c1.713.891,2.033,2.86,3.731,3.81l.572.245a2.036,2.036,0,0,0,1.374,1.1c.161.3.675.377.638.82l1.092.566c.176.046.221.172.167.356.346.347,1.317.327,1.255.909.3.32,1.227.28,1.115.833a3.328,3.328,0,0,1,1.622,1.457c.087.392.733.493.666.959.839.338.932,1.049,1.813,1.357-.034.392.37.562.777.734.392.192.773.4.725.8l.852.6c.477-.333.9.518,1.361.65l-.138.2c.311.294.328,1,1.189,1.392l.142-.193a1.2,1.2,0,0,0,.5-1.692l-.375-.256-.249-.171c-.33.173-.972-.687-.849-1.168.449-.142.349-.9.944-1.1.181-.215.35-.074.519.068a.674.674,0,0,1,.79-.04c.361-.133,1.206-.713.834-1.174.058-1.383,1.269-1.6,2.068-1.782l.134.093c-.327.405.414.414.533.653.742.21.7,1.158,1.279,1l.127.1c-.257.867-.044-.061-.419.279.122.15-.095.411-.312.671.084.4.558.664-.24,1.348.128.165.17,1.029.467.681l.123.1c-.1.171-.026.286-.177.473.136.651.776.289.554,1.052-.107.175-.192.138-.274.089-.192.289.31.353.058.659l.729.573a4.382,4.382,0,0,1,.47.4c-.178.278.151.412.292.6-.136.626.873.929,1.187,1.425.332-.4.473.287.727.34.239.422,1.189.666.967,1.2a6.058,6.058,0,0,1,1.181,1.645,13.169,13.169,0,0,1,.755,1.741c.124.19.444.342.237.6l.309.324.311.324c-.545.4.7.461.158.856.006.333-.241.717-.877,1.167-.171-.156-.3-.477-.582-.261l-.1-.1c-.176.152-.262,0-.379-.049.208-.6-.777-.911-1.251-.614-.032.511.3.938.083,1.478.144.092.137.217.019.365l.2.2a6.315,6.315,0,0,1,.653.738c-.2.2.007.331.081.485.55.7.995,1.682,2.258.5-.135-.1-.119-.23,0-.372l-.18-.222c.407-.394.029-.672.649-1.1a5.074,5.074,0,0,1,1.107-.16l.279.342c.954.008.765,1.24,1.407,1.7a5.4,5.4,0,0,1,.449.579c.013.254.652.456.219.744l.413.6c-.181.39.251.732.469,1.09l.25.356c-.385.312.124.568-.263.876.175.193-.068.41.133.6.108.074,0,.161-.117.248.36.644.191,1.388.5,2.1l.153.252a15.362,15.362,0,0,0,.42,3.009c.431.622.014,1.2.444,1.815l.217.393c.525.8.15,1.5.708,2.36a1.651,1.651,0,0,1,.184,1.456l.48.961c-.208.105-.083.248-.079.378.211.4.4.847.595,1.279-.2.059-.18.152-.153.245l.586,1.3c-.589.394.738,1.1.148,1.489.284.622.542,1.3.816,1.95l.25.6c-.438.368.309.983.341,1.449-.283.17-.025.445.027.7l.06.158-.222.088.24.631.06.158c.187.522-.081.931.316,1.5-.2.043-.189.142-.165.243a2.3,2.3,0,0,0-.987,1.446c-.174.333-.034.738-.377,1.032l.173.488c-.287.162-.042.476.006.733-.3.157-.13.45-.277.65.312.194.621,1.86,1.608,2.359.047.429.539.222.513.765l.287.849c.022.108.034.212-.17.247l.114.339c-.006.149.108.336-.113.416l.057.17c.65-.016.257,1.479,1.313.883l.172.51.172.514.457,1.413.115.353.342,1.059a1,1,0,0,0,.515.809c-.009.574-1.788,1.207-1.714.162-.007-.163-.143-.137-.286-.1-.153-.728-.723-.844-.8-1.685-.506,1.082-.468-.454-.284-.878.344-.724-.578-.36-.228-.7l.456-.151-.4-1.185c-.522,0-.815-.334-1.2-.54a.817.817,0,0,1-.455-.6c-.3.2-1.24.2-1.079.553.061.506.7-.709.966-.139a2.008,2.008,0,0,1-1.079.552l.17.5.851,2.552c.276-.059.636-.242.739-.048a1.666,1.666,0,0,0-.855.474l.113.349c.307,1.014.024.909.394,2a39.162,39.162,0,0,1,1.085,6.6l.352,1.13c.184-.095.239.006.288.117l.229-.071.058.188a6.205,6.205,0,0,1,.876,2c.022,1.2.518,1.578.026,2.5-.024.383.637,1.058.138,1.24.358.716-.111,1.08.321,1.826-.01.881.445.978-.03,1.51.549.687-.207,2.323.112,3.5l.711,2.218c.212.781.78,1.757.225,2.213l.069.208a.22.22,0,0,1,.138.416c-1.656,1-1.877,3.787.5,3.77a1.205,1.205,0,0,1,.612-.442c-.028-.5-.533-.148-.663-.469,1.019-.394,1.184.739,1.865,1.009.635.131-.206.829.678.483.056.366.342.292.451.561.159.285.5.228.677.48.074.214.271.189.375.346.228.272.522.417.75.69,1.559.615,1.858-.3,3.089-.623a1.163,1.163,0,0,1,.9.388c.058.123.123.235.3.129l.221.628c.49.052,1.04,1.629.411,1.8.059.264.266.593.016.725.262.412.057.626.095.942A1.438,1.438,0,0,1,97.294,196c.3.792.573,1.556.915,2.389.069.276.291.617.044.757l.269.671c.134.736,1.056,1.805.676,2.323l.09.224-1.33.551.188.447c.656.287.849-.429,1.234-.775l.284.664a1.355,1.355,0,0,1,.158.979l.666,1.55.286.665a4.888,4.888,0,0,1,.567,1.859l.3.659.2.438.5,1.1c-.165.543.24,1.309.38,1.957l.106.218.635,1.306.637,1.305c.471.644.347,1.085.532,1.63l.556,1.077c.113.216-.04.346.01.541l.223.431-1.28.661-.449-.869-.336-.652-.224-.434c-.131-.588-1.052-1.459-.647-1.861l-.428-.877c-.052-.14-.093-.276.11-.323l-.533-1.1c.152-.9-1.25-2.412-1-3.291l-.4-.884c-.662-1.1-.378-1.845-1.06-2.984-.434.159-.064-.857-.575-1.337l-.857-2.009c-1.556.27-1.5,1.225-.785,2.444.534,1.267,1.263,2.618,1.019,3.562l.3.67c.287.784,1,1.729.8,2.329a4.212,4.212,0,0,1,.286,1.767l.215.442a2.133,2.133,0,0,1,.43,1.434c.8,1.076-.257,1.492.438,2.534l.214-.107a2.072,2.072,0,0,0,.455,1.434l.341.659c.868,1.024.86,2.7,1.27,2.97.044.2-.044.351-.309.446.859,1.538.847,2.456,1.733,4.163.348-.19.452.54.781.42l.12.217c.191-.044.348.043.459.313a1.527,1.527,0,0,1,1.167-.378l.125.214.208-.119.124.213.249.429c.557,0,1.2,1.514,1.122,1.925.521-.331-.284-1.168.578-.915l.125.213.124.213-.207.122c.11.269-.19.425-.5.58.084.753.111,1.361.814,1.826-.2.125-.349-.024-.54.037l.261.424.261.425c.91-.72.432,1.7,1.527,1.1.355-.592-.829-.918-.448-1.183.311-.217-.171-.636.356-.8.448.7.184,1.126.981,1.134l.26.421.39.63c1.127.251,1.787,2.092,2.346,3.2a.726.726,0,0,0-.129.679c-.136.147-.065.34-.265.472a19.377,19.377,0,0,0,2.323,3.851l.853,1.233c.614.891,1.272,1.763,1.909,2.644l-.2.142c.674.657,1.225,2.21,1.982,2.286l.616.8c.311-.178.547.349.807.653-.439.284.46.774.582,1.145-.124.079-.246.144-.344-.052-.177.582-1.093.932-1.993.8a2.96,2.96,0,0,0-.526-.133l-.313-.405a4.454,4.454,0,0,1-1.93-1.747l-.151-.206a5.959,5.959,0,0,1-1.656-2.264,2.142,2.142,0,0,1-1.44-1.168c-.543-.937-.976.416-1.32.622.225.235.605.214.1.56l.152.208c1.419,1.288,1.78,2.5,3.044,4.162l1.583,2.054c.6.531,1.125,1.956,1.776,1.9a6.736,6.736,0,0,1,1.6,2.729l.165.2.5.606c.545-.2.991,1.075,1.523,1.453l.172.2c-.558.693,1.359.584.322,1.107.286.413.586.263.871.639-.18.158-.354.026-.535.116a6.255,6.255,0,0,1,1.378,1.95c-.179.16-.354.028-.532.12-.122.871.986.752,1.065,1.545.179-.151.359.116.538.232l.18.2c.178-.151.359.115.538.232,1.384,1.026,1.684,2.906,3.1,3.31l.374.384.172-.167.375.384,2.254,2.3c.546.742,1.3,1.491,1.25,2.208l-.166.172c.836.695.793,1.356,1.8,2.055.189.108.394.367.562.2l.608.553.407.369c.948.33,1.921.9,2.874,1.3.335.269.684.655.926.185-.137-.662-.271-.214-.81-.727.213-.235.5.154.723,0l.2.18c.616.509,1.724.754,1.606-.188l.207.176c-.386,1.1,1.01.6,1.658,1.405l.208.175c.438.5.732.044,1.193.69l.208.174a2.049,2.049,0,0,1,1.2.676c.157.813,1.9,1.751,2.575,2.033.558-.413-.439-1.637-.99-1.391-.145-.172-.064-.357-.279-.525l.45-.563.213.168c.939-.591.037-1.078.266-1.626,1.508.577,3.158,2.356,4.824,3.433l.871.641c.918-.143,1.47.611,2.905,1.515l.224.154c.076-.2.217-.126.361-.044.484.45.737-.027,1.258.568.1.581,1.627.605,2.285.969-.382.423-1.142-.6-1.432.192.513.692.731.574,1.484.712.249-.9,1.021.112,1.439-.212.463.229.361.548.792.782a5,5,0,0,0,1.742.81c.424.845-1.282-.143-1.871-.607-.13.2.033.359-.027.551a2.59,2.59,0,0,0,1.52.668c.325-.373.873-.009,1.2-.385l.125-.2q3.25,1.98,6.636,3.817c.156.066.306.12.357-.083l1.95,1.024-.11.213c.737.38,1.46.773,2.209,1.136.753-.249,2.118.915,3.111,1.214,1.329.645,2.693,1.239,4.068,1.815l.258.109-.094.221.772.328c1.11.937,3.074,1.545,4.532,2.308.77-.388.873-.216,1.207-.83.048-.343-.48-.471-.618-.744a.778.778,0,0,0-.352-.645c.02-.33-.323-.526-.262-.868-.213-.564.07-1.308-.507-1.732a.663.663,0,0,0-.244-.864c.239-.655-.24-1.062-.548-1.525.083-.282.142-.557-.311-.651l.092-.222c-.352-.192-.939-.3-.888-.636l-2.447-1.045c-.484-.148-.419-.491-.862-.661.214-.552.445-1.068.834-1.2.812.584,1.067-.215,1.584-.345.264.154.448.133.575-.015,1.516.639,2.593.33,4.1.948.19.119.263,0,.331-.132l.97.368-.087.224c.378.164.969.243.888.592l.245.092c.417.083.341.369.648.5.246.089.225.29.408.407.293.2.242.54.574.725,1.25,1.126,3.18,1.057,4.395.957l.289-.915.5.16a.653.653,0,0,1,.706-.529l.21-.687c-.245-.079-.233-.282-.418-.388.029-.275-.16-.445-.345-.616.043-.28-.305-.373-.656-.467-.616-.1-.392-.587-1.138-.625l-1.934-.646-2.141-.8-.713-.268c-.14.245-.47.1-.8-.046-.149.5-.887-.215-1.277-.231-1.065-.343-1.472-.94-1.175-1.8l.185-.443.277-.666c.021-.193-.083-.337-.364-.414.044-.14.076-.276-.135-.318-.289-.258-.435-.57-.721-.828-.758-.321-1.515-.642-2.25-1l-.223-.105c-.19.3-.63-.054-.991-.2.082-.272-.239-.4-.564-.533-.755-.564-1.188-.241-1.881-.631l-.218-.11-.107.214c-.873-.639-1.4-.244-1.965.058-.529-.323-.857-.032-1.213.179-.323-.247-.484,0-.772-.136a2.116,2.116,0,0,1-1.381-2.116l.117-.21c.022-.422-.5-.7-.166-1.2.224.6,1.158-.067,1.729-.118l.214.115.643.34c.209-.292.622.079.971.239l.429.226,1.073.561.109-.213,1.071.558,1.092.527,2.194,1.041.1-.218,1.1.516.22.1c.2-.267.639.058.991.164l.67.286c.5-.434,1.48.313,1.676-.854-.273-.072-.373-.216-.349-.408-1.115-.731.181-1.437.875-1.454.889.4,1.512.2,2.486.774l-.089.223.222.084c.629.268,1.5.424,1.689.893a1.7,1.7,0,0,1,.694-.508c-.095.292.169.418-.028.757l.668.25.444.165c-.107.365.506.388.208.844.158.109.446.153.376.376-.035.143-.058.28.15.3l.685.226.229.075,2.517.82.229.074c.611.2,1.236.356,1.853.534l2.325.647.465.128.232.064.06-.233c.725.328,1.131.1,1.7.159-.056.5,1.016.3,1.064.74,0,.2.185.287.131.522l1.183.271a1.18,1.18,0,0,0,.857-.544c.378-1.329-.324-1.959-.89-2.664l.052-.235c.086-.189-.04-.242-.177-.287.206-.467-.018-.655-.017-.988a2.087,2.087,0,0,1-.686-1.146,1.648,1.648,0,0,1-.282-.8c.028-.392.308-.354.39-.648a.632.632,0,0,1,.773-.314l.216-.935.055-.234c-.183-.469-.591-.782-.321-1.553-.045-.23-.088-.46-.316-.565.1-.525-.884-.305-1.222-.539a.964.964,0,0,1-.694.057c-.061.233-.245.228-.335.405.539-.285.372.288.909,0a.661.661,0,0,1-.544.346l-.183.7c-.278-.063-.376.214-.706.053l.125-.464c-.33-.116-.75-.175-.514-.642-.544-.109-.567-.54-.655-.929l-.212-.059c-.359-.031-.3-.32-.565-.408l-.422-.118-.211-.059.07-.23a19.25,19.25,0,0,1-4.161-2.623c-.139-.109-.4-.155-.323-.376l-.6-.226c-1.216-.026-.621-1-1.35-1.277a6.13,6.13,0,0,1-1.608-1.14c.082-.336-.167-.51-.116-.83.652.406.684.3,1.453.331l.394.148c.216-.487.869.217,1.264.218.483.34,1.661.3,1.688.889.262.1.531.179.8.269a3.025,3.025,0,0,0,1.854,1.111l.6.2c.372.283,1.408.137,1.346.666l-.068.229.615.172c.877.379,1.242,1.1,2.543,1.207.376-.645,1.191-.478,1.441-1.372a2.969,2.969,0,0,1-.719-1.416c-.27-.135-.236-.477-.476-.63a.666.666,0,0,0-.209-.806.668.668,0,0,1-.268-.573l.191-.693c.334-.015.366-.683.9-.247a1.144,1.144,0,0,1,1.03.035l.586.136a1.024,1.024,0,0,0-.613-1.635l-.761-.213-.381-.106-.57-.159-1.9-.533c-.13-.1-.368-.129-.305-.353-.146-.095-.2.031-.258.169-.3-.478-1.087-.637-1.017-1.344l-.558-.182c-.035-.455-.51-.628-.694-.984-.561,0-.214-.57-.573-.708l.322-.9c.292.082.341-.514.7-.26a2.694,2.694,0,0,1,1.924-.382c-.057.275.2.34.463.4.691.3,1.317.458,1.752.053.095-.368.348-.853.1-.968l.069-.23.139-.46c.374-.121.544-.766.976-.725.14-.311.46-.156.656-.316.445-.318,1.193.151,1.8.254.287.084.577.163.87.224.405.529,1.249.7,1.77,1.147a1.3,1.3,0,0,0,.96.716c.182-.213.916-.941.472-1.368l.049-.235c-.3,0-.253-.292-.471-.358l-.174-.04c-.972-.269-.953-.285-1.4-1.062l-.172-.039c.038-.28-.266-.269-.459-.351.084-.738-.9-.6-1.179-1.051.033-.512-.725.156-1.074-.051-.065.23-.215.236-.3.415-.17-.049-.255.129-.406.136-.115.507-.635-.064-.921-.006-.509-.131-.405-1.126.077-1.475.167.051.255-.129.4-.136l.167.047c.218.047.319-.231.569-.091l.167.046c.724-.684,1.478,1.086,2.229.375l.167.045c-.16.827.771-.442.615.387.265-.223.658-.129,1.065,0l.336.078a1.247,1.247,0,0,1,1.319,1.288c.1.032.2.072.123.266.458.337.271,1.284,1.2,1.195l.173.032a1.933,1.933,0,0,0-.029-2.689l-.168-.031c-.562-.421-1.183-.777-1.212-1.7l-.164-.038.051-.235.05-.234c.063-.561.052-1.051-.228-1.287-.192-.131-.16-.47-.374-.579l-.478-.11a2.17,2.17,0,0,0,.433-1.132c.116.074.1.271.259.306.623-.527.59,1,1.258.294l.157.037c.274.044.369.257.38.559-.1,0-.2,0-.207.208-.278-.324-.287-.316-.209.205a.834.834,0,0,0,1.33,0c.189-.017.3-.218.406-.414l.044-.236c.1,0,.193,0,.2-.208l.213-1.179C225.91,251.5,225.727,251.055,225.305,250.871Zm-39.7,41.892-2.148-1.021-.478-.229c-.557-.264-1.092-.559-1.638-.839l-.466-.243.662-1.279-1.15-.6c-.284.8-.1.839-.675,1.272l-1.161-.611c.078-.844.839-.862.111-1.3l.116-.212a4.574,4.574,0,0,0,1.721.638c.411.377,1.645.527,1.5,1.055l1.384.716.708.34,1.889.9C186.13,291.732,185.886,292.242,185.6,292.763ZM125.648,62.736a30.537,30.537,0,0,1,1.154,3.111,4.946,4.946,0,0,0,1.406,3.237c-.095.6-.715,1.1-.421,1.766.206.345-.016.61.146.947.55-.087,1.092.507,1.593,1.238l.164.229a5.48,5.48,0,0,1,.042,1.714l-.192.142-.162-.227c-.6.628-1.046-.45-1.638.182l-.321-.449c.184-.148-.048-.388-.142-.582.165-.211-.213-.524.038-.721l.19-.146a1.388,1.388,0,0,0-.33-.792,2.227,2.227,0,0,0-2.3-1.694c.57.275.569.29-.014.364l-.374.3-1.559-1.906-1.918-2.318c-1.7-2.147-3.034-4.16-4.5-6.239.16-.167-.1-.372-.207-.563.291-.151.6.086.894-.105-.83-1.406-1.163.321-.952-.995-.47-.344-.387-.643-.593-.965-.008-.462.191-.346.508-.511l.192.2c.532.595,1.35,1.218,1.361,1.769.194.26.378.32.555.234l.382.4c.449.371.184-.748.9-.093l.174-.165c-.318-.7.075-1.34.809-1.939l-.2-.2c.468-.325.991.264,1.475.16.257.217.525.614.762.455.129.117.257.221.37.044l.783.832-.176.162A13.571,13.571,0,0,1,125.648,62.736ZM211.589,240.8l-.1.219-.272-.113c-.162.515.633.37.857.619l.409.173c-.153.366.326.285.223.618.345.262-.033.536-.044,1.285a1.182,1.182,0,0,0-.929.647c.151.106.416.133.332.4-.359.437-.927-.3-1.371-.322l-.569-.24.1-.218c-.152-.1-.419-.135-.325-.405-.232-.268-.24-.676-.394-.987.379-.753-.131-.936.063-1.564l.1-.217c.455-.123.868-.559,1.379-.14Q211.317,240.689,211.589,240.8ZM87.11,163.85l1.145-.358.35,1.118-1.374.43C87.088,164.6,87.45,164.352,87.11,163.85ZM58.483,53.77c-.24-.246-1.15-.188-.912-.652-1.345-.312-.924-2.68.549-1.854a1,1,0,0,1,.519.483c.408.118.344.442.721.571.852.718.332,1.211-.17,2.017l-.2-.086C59.071,53.978,58.7,53.907,58.483,53.77Zm83.938,53.536.3.665c-.42.261-.163.787-.584,1.046l-.659.286c-.113-.412-1.111-.823-.592-1.318a1.059,1.059,0,0,1,.042-1.075C141.615,106.532,141.777,107.559,142.421,107.306ZM99.942,41.462a1.054,1.054,0,0,0,.65-.423c.408.127,1.006,1.049,1.276.608.7.329.156.728.59,1.071-.45.82-1.218-.014-1.816.118l-.9-.633C100.334,42.276,100.761,42.071,99.942,41.462ZM73.7,77.571c-.162-.628-.006-1.349-.595-1.869l.138-.2a.974.974,0,0,1-.515-.647c.481-.572.273-1.208.959-1.381l.165.115c.188-.211.412-.032.636.148l.166.115,1.163.8.5.344.142-.192.5.347.143-.192c.734.284.77.955,1.243.376l.638.508.478.381.149-.19,2.555,2.038.16.128a4.013,4.013,0,0,1,1.168,1.043,5.442,5.442,0,0,0,1,1.132l.151.138-.159.18c.6.551.579,1.182,1.174,1.73a4.381,4.381,0,0,1,.865,1.444l.149.136c-.132.638,1.086,1.088,1.45,1.686.794-.126,1.168.636,1.556,1.3l.278.293c.074.1.138.2-.034.313-.071.532.223,1.824,1.031,1.788l.137.146c-.554.386.889.666.332,1.05l.137.145c.127-.164.222-.095.316-.016l.275.291a.292.292,0,0,0,.095.449c.119.244-.113.517.025.772-.912.375.479.717-.043,1.083l-.364.313.124.152c.118-.086.234-.162.307,0-.658.731-1.4.117-2.048-.377-.688-.459-1.257-.807-1.456.345l.132.139c-.127.16-.22.1-.311.021-.264.214-.528.43-.405.616.923-.791.151.821-.409.616l-.519-.547-.259-.273-.389-.411.177-.162-.39-.411c.038-.648-1.209-1.182-1.082-1.844a4.492,4.492,0,0,1-1.1-1.859,4.678,4.678,0,0,0-.408-.4l-.563-.516c-1.028-.9-2.05-1.279-2.674-2.451l-.14-.129c-.085-.944-1.193-2.614-2.287-2.025l-.149-.119-.154.184c-.344-.5-.7-.031-1.047-.527-.569.083-.179-.371-.746-.288l.151-.187c-.42-.208-.05-.6-.594-.78l.149-.188c-1.213-.724-.59-1.636-1.5-1.812.535-.836-.688-.5-.034-1.563a.81.81,0,0,1-.336-.526c-.149-.165-.092-.388-.037-.61Zm36.1-10.5.177.186c.642.386.213.714.708,1.093.333.253.138.476.353.722a1.232,1.232,0,0,1,.35.719c-.469.5-.936.916-1.4.269l-.521-.55-.7-.733c-.4-.906-1.7-2.441-2.622-2.365-.166.229.111.45.367.7-.384.3-.833-.721-1.235-.525-.452-.625-1.788-1.235-1.667-1.868l-.736-.676c.493-.474-1.4-.89-.438-1.377a7.2,7.2,0,0,0-1.848-3.188c-.933-1.018-2.033-1.987-2.807-3l-.151.187c-.373-.259-.232-.562-.641-.819.141-.187-.126-.339-.247-.5.165-.308-.076-.579.047-.883.445.229.734-.6,1.247.071l1.6,1.281.6.482c.048.758,1.616,1.375,2.2,2.157l.381.345.76.692.16-.18c.69.54,1.414,1.545,2.062,1.562-.088.118-.165.235.027.35.45.407.275.815.971,1.221l1.131,1.048c.106.116.2.233.021.347l.187.175a11.639,11.639,0,0,0,1.472,2.525l.177.186C109.614,66.82,109.7,66.944,109.8,67.067Zm-20.3,4.6.172.139.331.3c.034,1.158,1.077,2.211,1.169,3.344.155.312.167.635.32.946-.244.237-.487.475-.328.676-.443.091-1.693-.448-1.6-1.141-.7-.469-.5-1.035-1.281-1.5.163-.128.085-.228,0-.328-.317-.523-.983-.936-1.03-1.474l-.17-.136-.34-.273a1.5,1.5,0,0,1,2.551-1.339C89.035,71.186,89.682,71.37,89.5,71.665Zm87.723,186c-.067-.313.5-.462-.391-.883l-.169-.124c.012-.5-1.313-1.162-2.1-.713l-.165-.13c.964-.307-.434-.292-.214-1.086,1.243-.584,2.538.88,3.9,1.779.706.126.513,1.258,1.175.861l.167.123c.514.311.815.679.737,1.125C178.887,257.728,178.559,257.986,177.221,257.669Zm4.725,1.3c.477.466.849.053,1.337.618-.167.5-.131,1.2-.623,1.317-.407.124-.888-.315-1.351-.628C181.019,259.609,181.451,259.659,181.946,258.968ZM68.224,90.606c-.288-.6-.906-1.295-1.229-2.021a1.584,1.584,0,0,1,.5-2.177c.142-.2.286-.151.429-.287.238-.22.481-.129.719-.38a.748.748,0,0,1,.714.234c.516,0,1.031.289,1.569-.586.77-.487,1.547-1.153,2.319-.606a.535.535,0,0,1,.133.721c.079.081.147.164-.007.3l.143.114.287.229.287.228c-.1.373.241.634.41.938-.293.318-.149.529-.472.853.087.153-.1,1.059-.474.848l-.154.184c-.855.392-1.554,3.372-.858,2.381.422-.236.109-.937.623-.731-.087.117-.164.233-.018.291-.4.837-.523,2.281-1.622,2.419a7.558,7.558,0,0,0-.65-.545l-.267-.21-.154.184L68.987,91.83l-.132-.106A1.254,1.254,0,0,0,68.224,90.606Zm118.637,174.35-.369-.213-.185-.107-.36-.224c.2-.453-.243-.707-.039-1.158-.061-.863,1.1-.471,1.693-.365.125-.206,0-.33.066-.516h1.447c-.426,1.053.4.816.3,1.558l.725.417c.266-.538.649-.486.948-.841-.1-.074-.2-.153-.063-.312-.292-.452-.169-1.05-.892-1.343s-.595-.889-.874-1.335l.368-.618c.188-.411-.359-.051-.228-.407.239-.464.676.263,1,.3.235-.465.673.262.992.3l.174.1.523.3c.636.37,1.275.736,1.933,1.069l.178.093c-.059.135-.107.265.066.305a.663.663,0,0,0,.02.824c-.05.8-.141,1.621.5,2.156.1.07.2.145.073.309.64.134.349.659,1,.773l-.106.215-.637,1.292a.893.893,0,0,1-.675-.061c-.126.145-.282.167-.482.018l-.109.215-.324.642c-.174-.039-.3.117-.487.017-1.552,1.478-4.078.089-4.371-1.808l-.118.208c-.1-.39-.246-.249-.557-.32-.44-.136-.411-.426-.624-.635l.121-.208C187.625,265.26,187.144,265.141,186.861,264.956Zm24.955-12.163-.474-.178-.792-.3c.1-.18.021-.233-.071-.282-.548-.014-.481-.453-.849-.6l-.465-.2-.931-.4c-.516-.226-1.042-.422-1.549-.67l-.153-.074-1.837-.871-.459-.216-.106.215-.308-.145a5.161,5.161,0,0,0-1.925-.739l-.151-.079a1.2,1.2,0,0,1-1.14-.054l-.3-.161c-.071.2-.168.165-.265.124a.261.261,0,0,1-.418.036,2.279,2.279,0,0,0-.511,1.644.268.268,0,0,0,.192.383c-.121.318.214.419.242.668l-.114.21c.482.759-.886,2.093-1.512,1.648a1.355,1.355,0,0,1-1.346-.216l-.159-.092c-.372-.22-.674.089-1.076-.342-.236.465-.622-.232-.921-.252-.412-.4-1.515-.579-1.447-1.174l-.157-.1a2.753,2.753,0,0,1-.625-2.09,2,2,0,0,1,.8-.912.951.951,0,0,1,.89.273c.278.408,1.551.423.964,1.172.059.211.123.42.306.192.158.146-.1.456-.219.711.551-.509,1.251.222,1.459.016.295-.385.347-.666.053-.8l.123-.207a.752.752,0,0,0,.858-.061.7.7,0,0,0,.579.057c.846-.227.873-1.253.655-1.839-.143-.142-.1-.364-.058-.587l.149.086c.213-.192.507-.634,1.071-.492l.147.085.237-.417.294.169.439.254c.584.343,1.191.63,1.784.95.111-.213.253-.19.371-.347.106.1.183-.009.259-.135l.147.078c.149.078.266-.081.406-.059.075-.125.152-.242.256-.136.6.095,1.138-.3,1.8.088l.1-.215.147.07.885.418c.65.292.25,1.228.936,1.5.058.39.459,1.129.908.383.149.546,1.047.619,1.572.929.153.062.3.134.456.19l.769.286,1.075.4.613.232-.081.226a3.17,3.17,0,0,1,1.869,1.143l-.075.227c-.112.908-.608.522-.771,1.264l-.321-.105-.32-.1c-.353.472-1.035-.259-1.513-.287C211.976,253.13,211.745,253.065,211.816,252.793ZM89.534,31.483a1.386,1.386,0,0,0,.371-1.176l.485.289c-.423,1.124,0,1.259.826,1.894a1.022,1.022,0,0,0,.135-.76.661.661,0,0,1,.105.9c-.639.4-1.825-.867-2.529-.675l-.959-.57C88.3,30.872,89.057,31.588,89.534,31.483ZM77.783,38.055c.436.3.144.8.577,1.107.537.285.486.69,1.245.944C78.412,40.375,77.2,38.24,77.783,38.055Zm110.1,241.417c-.541.336-1.507-.686-2.217-.888l-.112.211-.21-.11c.348-1.261-1.009.013.051-1.6.187.038.414.211.53.008l.209.109c.133-.14.305-.156.527.006.945.228,1.673-.248,2.619.016l.413.212c.16-.235.473,0,.738.086a1.614,1.614,0,0,0,.736-.979c-.244-.261-1.2-.259-.929-.714-.152-.131-.234-.016-.311.108a8.879,8.879,0,0,0-3.187-.857,1.934,1.934,0,0,1-1.652-.348c.414-1.4-2.563-1.791-2.146-3.171-.289-.269-.467-.053-.64.184-.738-1.065-2.226-1.117-2.451-2.088.1-.422-.367-.7-.377-1.09.78.45,1.337,1.568,2.292,1.438.137-.142.316-.084.441-.289a3.8,3.8,0,0,1-2.474-1.551c-.357-.191-.243-.5-.627-.683-.251-.194-.5-.387-.687-.175l-.555-.376c-.225-.789-2-1.224-.846-2.316.342.081.662.02,1,.1.293.13.529-.118.815-.026a.677.677,0,0,0,.631-.152l.543.368c.091-.115.184-.219.313-.078.417.292.854.558,1.285.83.455-.23,1.067.447,1.552.407l1.109.694c.061.723.995,1.164,1.829,1.634.184.055.133.185.07.318l.191.11.191.109c.387.16.287.477.645.648a.691.691,0,0,0,.149.638l-.585,1.048c.2.112.326-.037.5.012-.06.135-.109.265.077.321-.264,1.006.745,1.589,1.939,2.106l.6.315.11-.214.6.313.4.209.2.1c.225.149.6.24.509.508.311.174.724.309.406.724.323.76,1.35,1.252,1.25,2.187a1.145,1.145,0,0,1-.512.554c-.1.277-.176.545.22.635.2.243-.546.769.549,1.054-.238.158-.59,0-.722.455-.2-.044-.163-.18-.114-.319-.37-.526-1.744.416-2.65.075-.581-.469-.814.072-1.4-.4C188.443,279.768,188.167,279.617,187.885,279.472Z" />
    <path d="M19.783,45.912c.991.059,1.462-.629,2.643-.276l.149-1.433-.437-.057-1.32-.09c-.4.112-1.272-.374-1.34.152l-.879-.057L17.72,44.1a9.939,9.939,0,0,0-2.247,1.063C16.933,45.393,18.006,45.992,19.783,45.912Z" />
    <path d="M19.167,48.276l-.424-.027c-.023.233-.272.17-.44.213l-.212-.014c-.767.154-.063.589-.3,1.424.246-.024.369.076.4.265l.417.027,1.458.094a24.13,24.13,0,0,1,2.49.234l.207.028-.027.238.618.083c-.065.273,0,.431.15.5.087.49.469.709.935.852.735.24,1.284-.574,1.665-.016.14-.334.176.047.409.055.332.26.418.733,1.15.64.9-.389,2.705.127,2.942,1,.5,0,.352.522.954.442.144.085.392.088.351.318.145.085.392.087.351.318.228.607,1.5.4,2.133.686.094-.268.407-.124.649-.112l.4.083c.468-.293,2.059,0,1.53-1.12.058-.234-.092-.322-.084-.521-.639-.132-.526-.772-1.3-.78-.029-.624-1-.548-1.268-1l-.2-.042-.051.234a3.1,3.1,0,0,1-1.332-.765l-.2-.042c-.606-.392-.894-.8-.178-1.262-.055-.139-.939-.556-.323-.557-.38-.6-.755-.045-1.412-.534.074-.193-.041-.239-.166-.279l-.209-.042c-.259-.642-1.595-.345-2.282-.593l-1.7-.231-.848-.114-.211-.029-.212-.028-.424-.057c-.994-.232-1.506.23-2.568-.1A12.529,12.529,0,0,1,19.167,48.276Z" />
    <path d="M222.32,267.4a.541.541,0,0,0-.474-.577l-.377-.069a2.386,2.386,0,0,0-1.393-.79l.052-.235c-.93-.5-1.824-.574-1.57.869.236.132.281.416.7.408-.022.144-.034.282.135.277s.158.133.137.278l.567.131-.051.235c.155.265-.127.879.422.836l.963.18.046-.235c.492.269.478-.4.858-.33C222.436,267.963,222.193,267.84,222.32,267.4Z" />
    <path d="M90.549,90.02l-.137-.144c-.115.764.71,1.021.738,1.476C91.642,90.874,90.905,90.456,90.549,90.02Z" />
    <path d="M217.549,276.468c-.188,0-.176-.137-.156-.283-.209-.048-.291.133-.47.138-.406.143-.627.629-.9,1.024.734.074.093,1.111,1.11,1l.637.147A1.282,1.282,0,0,0,217.549,276.468Z" />
    <path d="M25.741,64.965l-1.808-.242-1.085-.147-1.445-.2-.081.717c.216.057.416.129.3.526l-.083.714c.131.072.348.055.325.287.11,0,.214-.007.206-.215.062-.276.052-.679.266-.689-.221.781.189.911.588,1.048l1.414.19L24.7,67c.095.816-1.478.049-.985.6,1.073.351,2-.209,2.416.563.026-.471.318-.445.471-.654-.486.135-1.059.245-1.2-.411l-.531-.07c.442-.361,1.861-.563,1.116-1.3.448-.034.319.474.854.366l.041-.237A1.357,1.357,0,0,1,25.741,64.965Zm-3.163.3c-.094.364-.413.11-.538-.073l-.18-.025c.092-.607.66-.391,1.138-.331C23.111,65.3,21.951,64.846,22.578,65.267Z" />
    <path d="M198.1,284.811c.451.506,1.188-.3,1.131.426.2.028.31-.139.537-.054-.111-.88-1.154-.779-1.945-.988C197.707,284.491,198.136,284.549,198.1,284.811Z" />
    <path d="M45.851,90.183a2.513,2.513,0,0,0-.99,1.378c.134.319.618.415.576.84.308.2.612.358.892.189a3.114,3.114,0,0,0,.512-1.354C46.434,90.936,46.556,90.308,45.851,90.183Z" />
    <path d="M45.424,93.745l.129.067a2.05,2.05,0,0,0,.56-.792c-.38.249-.652-.22-.676-.619C44.907,92.6,45.459,93.37,45.424,93.745Z" />
    <path d="M66.233,111.113c-.561-.589-.576-1.041-1.39-1.135-.788.623-.423.939-.656,1.41a.6.6,0,0,1,.285.656l.366.389.924.967c.214.068.146-.151.355-.323a.477.477,0,0,0,.1.451c.29.766.7-.671,1.357-.669l-.382-.393A3.413,3.413,0,0,0,66.233,111.113Z" />
    <path d="M82.082,151.455c-.45-.579-.79.241-1.645.374l.114.337C81.571,151.9,81.122,151.4,82.082,151.455Z" />
    <path d="M206.339,303.877l-.534-.147c-.863.444-1.954.557-2.87.943l-.54-.152-.54-.154c-.008.21-.17.187-.338.153a.8.8,0,0,0-.677.293l-.351,1.149.543.167c.255.419,1.252.509,1.511.926a2.8,2.8,0,0,0,1.716.231c.263-.526,1.238-.366,2.064-.3s1.512.015,1.161-.832c.269.056.284-.235.39-.4C207.454,305.089,207.278,304.3,206.339,303.877Z" />
    <path d="M53.6,108.081a5.282,5.282,0,0,1-.66-.651,1.388,1.388,0,0,1-.409-.738c-.326-.3-.4-.731-.942-.931l-.215-.148c.083-.171.068-.292-.079-.347l-.861-.6-.322-.227c-.429-.258-.678-.461-.883-.327.126.415-.162,1.055.222,1.329a1.679,1.679,0,0,1,.44,1.189c-.474.139.264,1.9.774,1.119l.105.071a11.923,11.923,0,0,0,.717,2,1.7,1.7,0,0,0,1.706,1.034l.1.078a1.134,1.134,0,0,1,.592-.142,8.683,8.683,0,0,0,.706-1.279A2.286,2.286,0,0,0,53.6,108.081Z" />
    <path d="M106.809,231.41l.126.215.126.216c.471-.487.446,1.1.917.615.154-.377-.158-.884.116-1.226C107.593,232,107.458,231.572,106.809,231.41Z" />
    <path d="M85.352,186.78c-.316.125-.463-.522-.526-.057l.209.629a3.361,3.361,0,0,0,.945,1.31l.226-.077C85.95,187.922,85.044,187.436,85.352,186.78Z" />
    <path d="M106.479,236.9l.668,1.081a.631.631,0,0,1,.813-.509c-.43-.714-.317-1.285-.991-2.062.443-.57-.618-.88-.793-1.292a2.66,2.66,0,0,0-.23,1.917c-.541.591-.77-.3-1.221-.152-.2.066-.141.2-.072.342a1.254,1.254,0,0,0,.2.779c-.368.14-.225.421-.479.593.2.321,1.026,1.836.877.966-.167-.348-.569-.76-.334-1,.364.643.993,1.356.874,1.87l.27.436.274.434c.244.3.446.843.763.734l.606-.389-.419-.645c-.272-.8-.738-.479-1.156-.48l-.135-.218c.71.19.585-.766.614-1.288C106.4,238.294,105.852,237,106.479,236.9Z" />
    <path d="M197.888,311.428l-.283-.091c-.379.665-1.75-.181-2.482-.053-.123-.621-1.755-.66-2.456-1.087l-.553-.2c-.491.146-.556,1-1.049,1.149.405.193,1.062.3,1.039.64l.564.2c-.066.353.618.439,1.064.608-.136.514,1.182.5,1.643.793.18-.3.714-.055,1.009-.175a2.446,2.446,0,0,0,3.148-.024c.284.073.309-.218.426-.379C199.314,312.338,199.09,311.7,197.888,311.428Z" />
    <path d="M104.252,235.574c.418.008.852-.068,1.15.5a1.245,1.245,0,0,0,.217-1.023c-.139.727-.693.435-1.089.062l-.206.123a.692.692,0,0,0-.01.9C104.511,236.007,104.311,235.77,104.252,235.574Z" />
    <path d="M190.535,309.149c-.069.315-1.382.253-.615.794l.085-.225c.019-.405,1.314-.366,1.194.191-.98-.577-.783.944-.052,1.006.163-.575.348-1.113.967-.923C192.259,309.481,190.973,309.461,190.535,309.149Z" />
    <path d="M82.078,185.309c-.207-.412-.748-.22-1.122-.332.046.26.239.585-.017.707.079.306.161.61.438.557C81.185,185.66,81.416,184.991,82.078,185.309Z" />
    <path d="M82.48,187.277c-.821.065-.407-.429.018-.708-.131-.21-.5.008-.6-.268-.414.236.572.477-.542.647.185.68.415,1.276.946,1.324.335-.326.17-.878.332-1.281C82.409,186.707,82.4,187.056,82.48,187.277Z" />
    <path d="M143.294,286.836c-.3.43-.832-.558-1.228-.721l-.621.732.863.729.432.363.217.182.216.182.433.362c.479-.023,1.147.8,1.556.335-.283-.175-.362-.356-.293-.539l-.222-.177c-.136-.18-.421-.362-.28-.546Z" />
    <path d="M174.511,309.277l-.319.646c-.579-.323-.5.7-.808.943-.357-.116-.29.157-.213.43l.278.134c.511.212.457.546,1.008.749.156-.539.921.144,1.146-.252.343.12.422-.285.586-.518.029-.653-.64-1.145-.857-1.738Z" />
    <path d="M170.179,309.756c-.815-.233.718-.9-.094-1.134a1.412,1.412,0,0,0-.466-1.059,1.667,1.667,0,0,0-.687-.635l.115-.211a2.512,2.512,0,0,0-1.2-.931l-1.036-.59c-1.541-.9-3.124-1.765-4.616-2.708a6.749,6.749,0,0,0-3.51-1.634l-.75-.475c-.938.265-1.244-1.111-2.189-1.471l.134-.2-1.933-1.318c-.015-.494-.881-.911-1.154-1.393q.01-.651-.885-1.238l.14-.194a10.053,10.053,0,0,0-2.4-2.064c-.167.357-.467.168-.664.4l-.145.191c-.47-.34-.907-.7-1.361-1.049.136-.252-.286-.481-.527-.718l.443-.567-.671-.528-.742.942c-.288-.179-.611-.535-.824-.344-.147-.691-.494-.21-1.122-.89-.465-.421-.831-.418-1.123.02l-.436-.366-.437-.366c-.171.308.6.611.35.919a1.184,1.184,0,0,0-.829.558l-.153.186c.465.494.592.984,1.422,1.462l.456.361.227.18c-.132.312.45.609.765.911.58-.236,1.5,1.058,2.21,1.425.249.24.693.467.56.72a6.714,6.714,0,0,1,2.039,1.2l.713.521c.556.414.939.174,1.564.843.4-.358,1.256.75,1.843.981.261.226.465.254.625.136l.978.665.246.166-.134.2c-.917-.673-.2.1-.649.431-.571.047-1.279-.351-1.774-.048.834.686.279,1.483,1.066,2.176l1.249.841.25.168-.132.2a18.821,18.821,0,0,1,2.974,2.73c.41.208.915.672,1.165.443l.126-.2c.453.2.329.471.654.689l.8.472c1.412.623,1.081-.779,1.632-1.55a3.846,3.846,0,0,1,2.617.956l.265.151-.118.21c1.339.757,2,1.6,3.651,2.27l-.112.211c.809.245,2.344.715,1.92-.348A.835.835,0,0,0,170.179,309.756Z" />
    <path d="M28.964,24.959l.255.034c.335-.546.154-.494.453-1.391l-.515-.07C28.738,23.436,28.54,24.942,28.964,24.959Z" />
    <path d="M30.476,46.266l.427.087.213.043.214.044.213.043.427.087,2.562.527.213.044c.2-.508,1.135.227,1.385-.2.381-.211,1,0,1.073-.756-.708.951-.421-1.7-1.842-.874-.3-.085-.606-.166-.7.1l-1.732-.357-1.516-.309-.042.236-.649-.132c-.049.508-.786-.038-1.128.061-.29.645.206.655.021,1.214C29.9,46.159,30.192,46.2,30.476,46.266Z" />
    <path d="M28.976,44.581c-1.1-.547-1.053.588-1.488,1.007l-.035.238.648.088C28.013,44.913,28.512,44.776,28.976,44.581Z" />
    <path d="M31.942,68.124l-.176-.036-.175-.036c-.034.281.275.264.472.342-.275.095-.234.895-.563.866.528-1.087-.48-.834-.611-1.351-.152.016-.226.2-.4.163.014-.329-.4-.285-.652-.38l-.194.941c.541.493.271-.776.671-.6-.178.476-.013.647-.026.975-.123.677,1.234.041,1.107.716a.722.722,0,0,1,.572-.128l.054-.234C32.046,68.907,32.588,68,31.942,68.124Z" />
    <path d="M125.777,265.054c-.539-.718-1.543-1.495-1.548-2.15-.092-.19-.335-.4-.162-.555a1.311,1.311,0,0,0-.332-.753c.067,1.146-1.068,1.044-.243,2.289l.695.8c.238-.151.283-.323.188-.515.676-.305.073,1.651,1.216,1.4C124.836,264.758,125.266,265.009,125.777,265.054Z" />
    <path d="M176.209,305.833a.794.794,0,0,0-.32-.686c.37-.653-.3-1.079-.863-1.525l.109-.214-.258-.134-1.544-.807c-.584-.192-.6-.5-.913-.753l-.256-.135-.255-.135c.144-.155.009-.253-.141-.347-.257-.135-.512-.271-.758-.415.387-.9-.658-.363-1.01-1.127-.413-.114-.077.2-.236.417a.786.786,0,0,0-.984-.01c-.318-.3.251-.21.358-.626-.883-.4-1.6,1.227-.216,1.538l-.118.209a1.89,1.89,0,0,1,.888.783c.254.144.206.341.389.5.249.145.508.283.768.42l.517.274a9.842,9.842,0,0,1,.288,2.592,1.754,1.754,0,0,1,.193.917l.265.138c-.059.584.468,1.053.889,1.544.718,1.273,1.586-.188,2.583.214l.1-.216c1.034-.334.79-1.6.787-2.284Z" />
    <path d="M111.279,239.55c-.212-.289-.423-.577-.21-.764l-.137-.211c-.955-.451-.748-1.451-1.68-2.2.154-.857-1.378-2.153-1.3-3.025l-.639-1.074c-.818,1.02.88,2,.944,2.942.074.6.444.707.385,1.537,1.057.649,1.888,2.734,2.11,3.746a.671.671,0,0,1-.327.819.241.241,0,0,0,.4-.264c.765.067.345.876-.323.822l.835,1.275a1.506,1.506,0,0,1,1.14-.459C113.278,241.922,110.957,240.427,111.279,239.55Z" />
  </g>
</svg>
